<svg xmlns="http://www.w3.org/2000/svg" viewBox="0 0 48 48" width="48px" height="48px">
    <path fill="#4285F4" d="M24 9.5c3.54 0 6.71 1.22 9.21 3.6l6.85-6.85C35.9 2.38 30.47 0 24 0 14.62 0 6.51 5.38 2.56 13.22l7.98 6.19C12.43 13.72 17.74 9.5 24 9.5z"/>
    <path fill="#34A853" d="M24 44c5.16 0 9.76-1.83 13.14-4.88l-7.24-6.35c-2.42 1.75-5.53 2.73-8.81 2.73-6.19 0-11.44-4.11-13.38-9.97L2.48 41.52C6.42 49.33 14.54 55 24 55z"/>
    <path fill="#FBBC05" d="M43.61 20.23c0-1.25-.11-2.46-.32-3.64H24v10.59h11.13c-.49 2.65-2.02 4.9-4.28 6.47l6.81 5.67c4-3.69 6.29-9.15 6.29-15.09z"/>
    <path fill="#EA4335" d="M10.14 26.54c-1.65-4.83-1.65-10.25 0-15.09L2.16 5.25C-1.87 13.23-1.87 22.77 2.16 30.75l7.98-6.19z"/>
    <path fill="none" d="M0 0h48v48H0z"/>
</svg>
